<svg width="11" height="24" viewBox="0 0 11 24" fill="none" xmlns="http://www.w3.org/2000/svg">
<path d="M6.59759 4.60878H3.52563C3.45242 4.60879 3.38103 4.58603 3.32139 4.54366C3.26174 4.5013 3.2168 4.44144 3.19283 4.37241L2.19901 1.51217L2.19516 1.50045C2.08545 1.14526 2.14951 0.769912 2.37077 0.470731C2.59198 0.17155 2.93263 0 3.30508 0H6.81786C7.19049 0 7.531 0.17155 7.75226 0.470731C7.97348 0.769912 8.03754 1.14521 7.92783 1.50045C7.9267 1.50448 7.92524 1.50833 7.92397 1.51217L6.93035 4.37241C6.90635 4.44143 6.86141 4.50128 6.80177 4.54364C6.74213 4.586 6.67074 4.60877 6.59754 4.60878H6.59759ZM3.7763 3.90571H6.34678L7.2562 1.2884C7.27653 1.22085 7.28074 1.14948 7.26847 1.08001C7.2562 1.01054 7.22781 0.944907 7.18556 0.888356C7.14332 0.830667 7.08797 0.783795 7.02406 0.751588C6.96015 0.71938 6.8895 0.702753 6.81791 0.703073H3.30512C3.23353 0.702753 3.16288 0.71938 3.09897 0.751588C3.03506 0.783795 2.97971 0.830667 2.93747 0.888356C2.89522 0.944907 2.86683 1.01054 2.85456 1.08001C2.8423 1.14948 2.8465 1.22085 2.86683 1.2884L3.7763 3.90571ZM5.06163 23.9982C4.48112 23.9982 3.93828 23.7404 3.57227 23.2911L0.430245 19.4343C0.256652 19.2214 0.130977 18.9737 0.0617475 18.7081C-0.00748241 18.4424 -0.0186481 18.165 0.0290079 17.8947C0.0299473 17.8887 0.0312154 17.8828 0.0324835 17.8768L2.86646 5.54921C2.90995 5.35985 3.09908 5.24197 3.28864 5.28519C3.37966 5.30605 3.45865 5.36212 3.50825 5.44108C3.55785 5.52005 3.574 5.61544 3.55316 5.70628L0.721438 18.0247C0.692744 18.1946 0.700683 18.3686 0.744725 18.5352C0.788767 18.7018 0.8679 18.8571 0.976843 18.9907L4.11882 22.8475C4.23252 22.9876 4.37622 23.1005 4.53936 23.178C4.70251 23.2555 4.88096 23.2955 5.06163 23.2951C5.24227 23.2955 5.42069 23.2555 5.58381 23.178C5.74692 23.1006 5.89059 22.9876 6.00426 22.8475L9.14624 18.9907C9.25518 18.857 9.33431 18.7017 9.37836 18.5351C9.4224 18.3686 9.43034 18.1945 9.40164 18.0246L6.56912 5.70276C6.55878 5.65778 6.55742 5.6112 6.56512 5.56569C6.57282 5.52018 6.58943 5.47663 6.614 5.43752C6.63857 5.39842 6.67061 5.36453 6.70831 5.33779C6.746 5.31105 6.78861 5.29198 6.83369 5.28167C6.87877 5.27134 6.92546 5.26998 6.97107 5.27765C7.01669 5.28533 7.06034 5.3019 7.09954 5.32641C7.13874 5.35092 7.17272 5.3829 7.19953 5.42052C7.22635 5.45814 7.24548 5.50066 7.25583 5.54565L10.0904 17.8767C10.0918 17.8828 10.0931 17.8886 10.094 17.8947C10.1416 18.165 10.1305 18.4423 10.0612 18.7079C9.99199 18.9736 9.86634 19.2212 9.69279 19.4341L6.55081 23.2909C6.1848 23.7404 5.64191 23.9982 5.06163 23.9982Z" fill="black"/>
</svg>
