<svg width="16" height="16" viewBox="0 0 16 16" fill="none" xmlns="http://www.w3.org/2000/svg">
<mask id="mask0_464_5248" style="mask-type:luminance" maskUnits="userSpaceOnUse" x="0" y="0" width="16" height="16">
<path d="M16 0H0V16H16V0Z" fill="white"/>
</mask>
<g mask="url(#mask0_464_5248)">
<path d="M12.1263 11.8333H5.02633C4.36633 11.8333 3.733 11.5533 3.28633 11.0666C2.83967 10.5799 2.61301 9.92659 2.66634 9.26659L3.21967 2.62659C3.23967 2.41992 3.16633 2.21993 3.02633 2.06659C2.88633 1.91326 2.69301 1.83325 2.48634 1.83325H1.33301C1.05967 1.83325 0.833008 1.60659 0.833008 1.33325C0.833008 1.05992 1.05967 0.833252 1.33301 0.833252H2.49301C2.97968 0.833252 3.43967 1.03992 3.76633 1.39325C3.94633 1.59325 4.07967 1.82659 4.15301 2.08659H12.4797C13.153 2.08659 13.773 2.35325 14.2263 2.83325C14.673 3.31992 14.8997 3.95325 14.8463 4.62659L14.4863 9.62659C14.413 10.8466 13.3463 11.8333 12.1263 11.8333ZM4.18634 3.07992L3.66634 9.34659C3.63301 9.73325 3.75967 10.0999 4.01967 10.3866C4.27967 10.6733 4.63967 10.8266 5.02633 10.8266H12.1263C12.8197 10.8266 13.4463 10.2399 13.4997 9.54659L13.8597 4.54659C13.8863 4.15326 13.7597 3.77993 13.4997 3.50659C13.2397 3.22659 12.8797 3.07325 12.4863 3.07325H4.18634V3.07992Z" fill="white"/>
<path d="M10.8333 15.1667C10.1 15.1667 9.5 14.5667 9.5 13.8333C9.5 13.1 10.1 12.5 10.8333 12.5C11.5667 12.5 12.1667 13.1 12.1667 13.8333C12.1667 14.5667 11.5667 15.1667 10.8333 15.1667ZM10.8333 13.5C10.6467 13.5 10.5 13.6467 10.5 13.8333C10.5 14.02 10.6467 14.1667 10.8333 14.1667C11.02 14.1667 11.1667 14.02 11.1667 13.8333C11.1667 13.6467 11.02 13.5 10.8333 13.5Z" fill="white"/>
<path d="M5.49935 15.1667C4.76602 15.1667 4.16602 14.5667 4.16602 13.8333C4.16602 13.1 4.76602 12.5 5.49935 12.5C6.23268 12.5 6.83268 13.1 6.83268 13.8333C6.83268 14.5667 6.23268 15.1667 5.49935 15.1667ZM5.49935 13.5C5.31268 13.5 5.16602 13.6467 5.16602 13.8333C5.16602 14.02 5.31268 14.1667 5.49935 14.1667C5.68602 14.1667 5.83268 14.02 5.83268 13.8333C5.83268 13.6467 5.68602 13.5 5.49935 13.5Z" fill="white"/>
<path d="M14 5.83325H6C5.72667 5.83325 5.5 5.60659 5.5 5.33325C5.5 5.05992 5.72667 4.83325 6 4.83325H14C14.2733 4.83325 14.5 5.05992 14.5 5.33325C14.5 5.60659 14.2733 5.83325 14 5.83325Z" fill="white"/>
</g>
</svg>
