<svg width="24" height="24" viewBox="0 0 24 24" fill="none" xmlns="http://www.w3.org/2000/svg">
<mask id="mask0_1822_1573" style="mask-type:luminance" maskUnits="userSpaceOnUse" x="0" y="0" width="24" height="24">
<path d="M24 0H0V24H24V0Z" fill="white"/>
</mask>
<g mask="url(#mask0_1822_1573)">
<path d="M12 22.75C6.07 22.75 1.25 17.93 1.25 12C1.25 6.07 6.07 1.25 12 1.25C17.93 1.25 22.75 6.07 22.75 12C22.75 17.93 17.93 22.75 12 22.75ZM12 2.75C6.9 2.75 2.75 6.9 2.75 12C2.75 17.1 6.9 21.25 12 21.25C17.1 21.25 21.25 17.1 21.25 12C21.25 6.9 17.1 2.75 12 2.75Z" fill="white"/>
<path d="M10.5794 15.5796C10.3794 15.5796 10.1894 15.4996 10.0494 15.3596L7.21945 12.5296C6.92945 12.2396 6.92945 11.7596 7.21945 11.4696C7.50945 11.1796 7.98945 11.1796 8.27945 11.4696L10.5794 13.7696L15.7194 8.62961C16.0094 8.33961 16.4894 8.33961 16.7794 8.62961C17.0694 8.91961 17.0694 9.39961 16.7794 9.68961L11.1094 15.3596C10.9694 15.4996 10.7794 15.5796 10.5794 15.5796Z" fill="white"/>
</g>
</svg>
