<svg width="20" height="20" viewBox="0 0 20 20" fill="none" xmlns="http://www.w3.org/2000/svg">
<g clip-path="url(#clip0_1068_2951)">
<mask id="mask0_1068_2951" style="mask-type:luminance" maskUnits="userSpaceOnUse" x="0" y="0" width="20" height="20">
<path d="M20 0H0V20H20V0Z" fill="white"/>
</mask>
<g mask="url(#mask0_1068_2951)">
<path d="M2.29152 15.5423C1.94985 15.5423 1.66652 15.259 1.66652 14.9173V10.1673C1.62485 7.90898 2.46652 5.77565 4.03318 4.17565C5.59985 2.58398 7.69985 1.70898 9.95821 1.70898C14.5749 1.70898 18.3332 5.46732 18.3332 10.084V14.834C18.3332 15.1757 18.0499 15.459 17.7082 15.459C17.3665 15.459 17.0832 15.1757 17.0832 14.834V10.084C17.0832 6.15898 13.8915 2.95898 9.95821 2.95898C8.03318 2.95898 6.24985 3.70065 4.92485 5.05065C3.59152 6.40898 2.88318 8.21732 2.91652 10.1507V14.909C2.91652 15.259 2.64152 15.5423 2.29152 15.5423Z" fill="#4F4F4F"/>
<path d="M4.94935 10.3745H4.84102C3.09102 10.3745 1.66602 11.7995 1.66602 13.5495V15.1162C1.66602 16.8662 3.09102 18.2912 4.84102 18.2912H4.94935C6.69935 18.2912 8.12435 16.8662 8.12435 15.1162V13.5495C8.12435 11.7995 6.69935 10.3745 4.94935 10.3745Z" fill="#4F4F4F"/>
<path d="M15.1583 10.3745H15.05C13.3 10.3745 11.875 11.7995 11.875 13.5495V15.1162C11.875 16.8662 13.3 18.2912 15.05 18.2912H15.1583C16.9083 18.2912 18.3333 16.8662 18.3333 15.1162V13.5495C18.3333 11.7995 16.9083 10.3745 15.1583 10.3745Z" fill="#4F4F4F"/>
</g>
</g>
<defs>
<clipPath id="clip0_1068_2951">
<rect width="20" height="20" fill="white"/>
</clipPath>
</defs>
</svg>
