<svg width="16" height="16" viewBox="0 0 16 16" fill="none" xmlns="http://www.w3.org/2000/svg">
<g clip-path="url(#clip0_494_11535)">
<path d="M13.1665 9.83308C13.2908 9.95693 13.3894 10.1041 13.4567 10.2661C13.524 10.4282 13.5586 10.6019 13.5586 10.7773C13.5586 10.9528 13.524 11.1265 13.4567 11.2886C13.3894 11.4506 13.2908 11.5978 13.1665 11.7216L11.7223 13.1658C11.5985 13.2901 11.4513 13.3887 11.2893 13.456C11.1273 13.5232 10.9535 13.5579 10.7781 13.5579C10.6026 13.5579 10.4289 13.5232 10.2669 13.456C10.1048 13.3887 9.95766 13.2901 9.83381 13.1658L2.8351 6.16709C2.58546 5.91623 2.44531 5.57673 2.44531 5.22282C2.44531 4.86891 2.58546 4.5294 2.8351 4.27855L4.27928 2.83437C4.53014 2.58473 4.86964 2.44458 5.22355 2.44458C5.57746 2.44458 5.91697 2.58473 6.16782 2.83437L13.1665 9.83308Z" stroke="white" stroke-linecap="round" stroke-linejoin="round"/>
<path d="M9.38867 8.27778L10.4996 7.16687" stroke="white" stroke-linecap="round" stroke-linejoin="round"/>
<path d="M7.72266 6.61139L8.83356 5.50049" stroke="white" stroke-linecap="round" stroke-linejoin="round"/>
<path d="M6.05664 4.94501L7.16755 3.83411" stroke="white" stroke-linecap="round" stroke-linejoin="round"/>
<path d="M11.0557 9.94416L12.1666 8.83325" stroke="white" stroke-linecap="round" stroke-linejoin="round"/>
</g>
<defs>
<clipPath id="clip0_494_11535">
<rect width="13.3309" height="13.3309" fill="white" transform="translate(1.33496 1.33459)"/>
</clipPath>
</defs>
</svg>
