<svg width="20" height="20" viewBox="0 0 20 20" fill="none" xmlns="http://www.w3.org/2000/svg">
<g clip-path="url(#clip0_366_8455)">
<mask id="mask0_366_8455" style="mask-type:luminance" maskUnits="userSpaceOnUse" x="0" y="0" width="20" height="20">
<path d="M20 0H0V20H20V0Z" fill="white"/>
</mask>
<g mask="url(#mask0_366_8455)">
<path d="M6.66699 4.79163C6.32533 4.79163 6.04199 4.50829 6.04199 4.16663V1.66663C6.04199 1.32496 6.32533 1.04163 6.66699 1.04163C7.00866 1.04163 7.29199 1.32496 7.29199 1.66663V4.16663C7.29199 4.50829 7.00866 4.79163 6.66699 4.79163Z" fill="#314158"/>
<path d="M13.333 4.79163C12.9913 4.79163 12.708 4.50829 12.708 4.16663V1.66663C12.708 1.32496 12.9913 1.04163 13.333 1.04163C13.6747 1.04163 13.958 1.32496 13.958 1.66663V4.16663C13.958 4.50829 13.6747 4.79163 13.333 4.79163Z" fill="#314158"/>
<path d="M7.08333 12.0835C6.975 12.0835 6.86667 12.0585 6.76667 12.0169C6.65833 11.9752 6.575 11.9169 6.49167 11.8419C6.34167 11.6835 6.25 11.4752 6.25 11.2502C6.25 11.1419 6.275 11.0335 6.31667 10.9335C6.35833 10.8335 6.41667 10.7419 6.49167 10.6585C6.575 10.5835 6.65833 10.5252 6.76667 10.4835C7.06667 10.3585 7.44167 10.4252 7.675 10.6585C7.825 10.8169 7.91667 11.0335 7.91667 11.2502C7.91667 11.3002 7.90833 11.3585 7.9 11.4169C7.89167 11.4669 7.875 11.5169 7.85 11.5669C7.83333 11.6169 7.80833 11.6669 7.775 11.7169C7.75 11.7585 7.70833 11.8002 7.675 11.8419C7.51667 11.9919 7.3 12.0835 7.08333 12.0835Z" fill="#314158"/>
<path d="M10.0003 12.0839C9.89199 12.0839 9.78366 12.059 9.68366 12.0173C9.57533 11.9757 9.49199 11.9173 9.40866 11.8423C9.25866 11.6839 9.16699 11.4756 9.16699 11.2506C9.16699 11.1423 9.19199 11.0339 9.23366 10.9339C9.27533 10.8339 9.33366 10.7423 9.40866 10.659C9.49199 10.584 9.57533 10.5256 9.68366 10.4839C9.98366 10.3506 10.3587 10.4257 10.592 10.659C10.742 10.8173 10.8337 11.0339 10.8337 11.2506C10.8337 11.3006 10.8253 11.359 10.817 11.4173C10.8087 11.4673 10.792 11.5173 10.767 11.5673C10.7503 11.6173 10.7253 11.6673 10.692 11.7173C10.667 11.7589 10.6253 11.8006 10.592 11.8423C10.4337 11.9923 10.217 12.0839 10.0003 12.0839Z" fill="#314158"/>
<path d="M12.9163 12.0839C12.808 12.0839 12.6997 12.059 12.5997 12.0173C12.4913 11.9757 12.408 11.9173 12.3247 11.8423C12.2913 11.8006 12.258 11.7589 12.2247 11.7173C12.1913 11.6673 12.1663 11.6173 12.1497 11.5673C12.1247 11.5173 12.108 11.4673 12.0997 11.4173C12.0913 11.359 12.083 11.3006 12.083 11.2506C12.083 11.0339 12.1747 10.8173 12.3247 10.659C12.408 10.584 12.4913 10.5256 12.5997 10.4839C12.908 10.3506 13.2747 10.4257 13.508 10.659C13.658 10.8173 13.7497 11.0339 13.7497 11.2506C13.7497 11.3006 13.7413 11.359 13.733 11.4173C13.7247 11.4673 13.708 11.5173 13.683 11.5673C13.6663 11.6173 13.6413 11.6673 13.608 11.7173C13.583 11.7589 13.5413 11.8006 13.508 11.8423C13.3497 11.9923 13.133 12.0839 12.9163 12.0839Z" fill="#314158"/>
<path d="M7.08333 14.9993C6.975 14.9993 6.86667 14.9743 6.76667 14.9326C6.66667 14.8909 6.575 14.8326 6.49167 14.7576C6.34167 14.5993 6.25 14.3826 6.25 14.1659C6.25 14.0576 6.275 13.9493 6.31667 13.8493C6.35833 13.7409 6.41667 13.6493 6.49167 13.5743C6.8 13.2659 7.36667 13.2659 7.675 13.5743C7.825 13.7326 7.91667 13.9493 7.91667 14.1659C7.91667 14.3826 7.825 14.5993 7.675 14.7576C7.51667 14.9076 7.3 14.9993 7.08333 14.9993Z" fill="#314158"/>
<path d="M10.0003 14.9993C9.78366 14.9993 9.56699 14.9076 9.40866 14.7576C9.25866 14.5993 9.16699 14.3826 9.16699 14.1659C9.16699 14.0576 9.19199 13.9493 9.23366 13.8493C9.27533 13.7409 9.33366 13.6493 9.40866 13.5743C9.71699 13.2659 10.2837 13.2659 10.592 13.5743C10.667 13.6493 10.7253 13.7409 10.767 13.8493C10.8087 13.9493 10.8337 14.0576 10.8337 14.1659C10.8337 14.3826 10.742 14.5993 10.592 14.7576C10.4337 14.9076 10.217 14.9993 10.0003 14.9993Z" fill="#314158"/>
<path d="M12.9163 15.0007C12.6997 15.0007 12.483 14.909 12.3247 14.759C12.2497 14.684 12.1913 14.5923 12.1497 14.484C12.108 14.384 12.083 14.2757 12.083 14.1673C12.083 14.059 12.108 13.9507 12.1497 13.8507C12.1913 13.7423 12.2497 13.6507 12.3247 13.5757C12.5163 13.384 12.808 13.2923 13.0747 13.3507C13.133 13.359 13.183 13.3757 13.233 13.4007C13.283 13.4173 13.333 13.4423 13.383 13.4757C13.4247 13.5007 13.4663 13.5423 13.508 13.5757C13.658 13.734 13.7497 13.9507 13.7497 14.1673C13.7497 14.384 13.658 14.6007 13.508 14.759C13.3497 14.909 13.133 15.0007 12.9163 15.0007Z" fill="#314158"/>
<path d="M17.0837 8.19983H2.91699C2.57533 8.19983 2.29199 7.9165 2.29199 7.57483C2.29199 7.23316 2.57533 6.94983 2.91699 6.94983H17.0837C17.4253 6.94983 17.7087 7.23316 17.7087 7.57483C17.7087 7.9165 17.4253 8.19983 17.0837 8.19983Z" fill="#314158"/>
<path d="M13.3333 18.9583H6.66667C3.625 18.9583 1.875 17.2083 1.875 14.1666V7.08329C1.875 4.04163 3.625 2.29163 6.66667 2.29163H13.3333C16.375 2.29163 18.125 4.04163 18.125 7.08329V14.1666C18.125 17.2083 16.375 18.9583 13.3333 18.9583ZM6.66667 3.54163C4.28333 3.54163 3.125 4.69996 3.125 7.08329V14.1666C3.125 16.55 4.28333 17.7083 6.66667 17.7083H13.3333C15.7167 17.7083 16.875 16.55 16.875 14.1666V7.08329C16.875 4.69996 15.7167 3.54163 13.3333 3.54163H6.66667Z" fill="#314158"/>
</g>
</g>
<defs>
<clipPath id="clip0_366_8455">
<rect width="20" height="20" fill="white"/>
</clipPath>
</defs>
</svg>
