<svg width="24" height="24" viewBox="0 0 24 24" fill="none" xmlns="http://www.w3.org/2000/svg">
<path d="M13.8994 3.06836L12.168 2.32715L11.9707 2.24316L11.7744 2.32715L10.042 3.06934V0.757812L11.7744 1.5L11.9707 1.58496L12.168 1.5L13.8994 0.757812V3.06836Z" stroke="black"/>
<path d="M20.6787 3.77075L20.6797 3.77368V3.77466L23.4141 21.6917L20.7021 21.5901L19.1299 11.7913L18.1367 11.8616L18.1006 13.885V13.9055L18.1016 13.927L18.4961 19.8313V19.8391L18.4971 19.8469L18.8525 23.5002H13.8848L12.4473 20.6262L12 19.7327L11.5527 20.6262L10.1152 23.5002H5.14746L5.50195 19.8469L5.50391 19.8313L5.89844 13.9338L5.89941 13.9133V13.8918L5.86328 11.8655L4.87012 11.7952L3.29688 21.5901L0.584961 21.6917L3.31934 3.77075L7.42578 1.93286L11.5312 12.9465L12 14.2034L12.4688 12.9465L14.2588 8.1438V10.0569H18.1377V7.87036H14.3604L16.5732 1.93286L20.6787 3.77075Z" stroke="black"/>
</svg>
