<svg width="24" height="24" viewBox="0 0 24 24" fill="none" xmlns="http://www.w3.org/2000/svg">
<g clip-path="url(#clip0_464_5015)">
<mask id="mask0_464_5015" style="mask-type:luminance" maskUnits="userSpaceOnUse" x="0" y="0" width="24" height="24">
<path d="M24 0H0V24H24V0Z" fill="white"/>
</mask>
<g mask="url(#mask0_464_5015)">
<path d="M11.9994 22.7595C10.9094 22.7595 9.82941 22.4395 8.97941 21.8095L4.67941 18.5995C3.53941 17.7495 2.64941 15.9695 2.64941 14.5595V7.11945C2.64941 5.57945 3.77941 3.93945 5.22941 3.39945L10.2194 1.52945C11.2094 1.15945 12.7694 1.15945 13.7594 1.52945L18.7494 3.39945C20.1994 3.93945 21.3294 5.57945 21.3294 7.11945V14.5495C21.3294 15.9695 20.4394 17.7395 19.2994 18.5895L14.9994 21.7995C14.1694 22.4395 13.0894 22.7595 11.9994 22.7595ZM10.7494 2.93945L5.75941 4.80945C4.90941 5.12945 4.15941 6.20945 4.15941 7.12945V14.5595C4.15941 15.5095 4.82941 16.8395 5.57941 17.3995L9.87941 20.6095C11.0294 21.4695 12.9694 21.4695 14.1294 20.6095L18.4294 17.3995C19.1894 16.8295 19.8494 15.5095 19.8494 14.5595V7.11945C19.8494 6.20945 19.0994 5.12945 18.2494 4.79945L13.2594 2.92945C12.5794 2.68945 11.4194 2.68945 10.7494 2.93945Z" fill="#314158"/>
</g>
</g>
<defs>
<clipPath id="clip0_464_5015">
<rect width="24" height="24" fill="white"/>
</clipPath>
</defs>
</svg>
