<svg width="24" height="24" viewBox="0 0 24 24" fill="none" xmlns="http://www.w3.org/2000/svg">
<g clip-path="url(#clip0_120_2130)">
<path d="M22.4002 3.58887C22.3996 3.5576 22.3898 3.52872 22.3821 3.4989C22.3766 3.47799 22.3757 3.45568 22.3671 3.43622C22.3571 3.41339 22.3397 3.3952 22.3256 3.37457C22.3107 3.353 22.2991 3.32928 22.2804 3.31105C22.2654 3.29632 22.245 3.28774 22.2276 3.27541C22.2022 3.2576 22.1786 3.23824 22.1495 3.22661C22.1468 3.22553 22.1451 3.22323 22.1424 3.2222L19.0225 2.05226L17.0838 0.11353C17.0698 0.0995124 17.0518 0.0934645 17.0363 0.0819784C17.0142 0.0654289 16.9933 0.0485513 16.9688 0.037112C16.946 0.0264697 16.9228 0.0214533 16.8988 0.0153586C16.8729 0.00874818 16.8482 0.00171583 16.8216 0.000356246C16.7969 -0.000909577 16.7735 0.00321607 16.749 0.00649783C16.7226 0.00996712 16.6972 0.0127332 16.6718 0.0215471C16.6473 0.029939 16.6257 0.0440037 16.6029 0.0573183C16.5856 0.067398 16.5663 0.0717111 16.5502 0.0846976C14.0412 2.10218 9.95934 2.10218 7.45034 0.0846976C7.4344 0.0718987 7.41532 0.0676324 7.39821 0.0576933C7.375 0.0441443 7.35311 0.029939 7.32822 0.0214533C7.30365 0.0130145 7.27918 0.0104359 7.25381 0.00696665C7.22822 0.0034036 7.2037 -0.000815812 7.17791 0.000590657C7.15245 0.00199713 7.12887 0.00879506 7.10407 0.0149835C7.07904 0.021172 7.0548 0.0264697 7.03108 0.0375808C7.00702 0.0488326 6.98668 0.065382 6.96497 0.0815096C6.94927 0.0931833 6.93089 0.0993248 6.91664 0.113577L4.97791 2.0523L1.85799 3.2222C1.85527 3.22323 1.85358 3.22553 1.85091 3.22661C1.82184 3.23819 1.79826 3.25755 1.77303 3.27532C1.75555 3.28765 1.73511 3.29632 1.72006 3.31105C1.70145 3.32919 1.68991 3.35277 1.6751 3.37424C1.66089 3.39496 1.64341 3.4133 1.63333 3.43627C1.62479 3.45558 1.62386 3.47771 1.61846 3.49848C1.61068 3.52849 1.60088 3.55746 1.60023 3.58887C1.60018 3.59168 1.59863 3.59403 1.59863 3.59684V23.6C1.59861 23.6525 1.60895 23.7046 1.62905 23.7531C1.64914 23.8016 1.67861 23.8457 1.71576 23.8829C1.75291 23.9201 1.79702 23.9495 1.84557 23.9696C1.89411 23.9897 1.94614 24 1.99868 24H22.0018C22.0544 24 22.1064 23.9897 22.1549 23.9696C22.2035 23.9495 22.2476 23.9201 22.2847 23.8829C22.3219 23.8457 22.3514 23.8016 22.3715 23.7531C22.3916 23.7046 22.4019 23.6525 22.4019 23.6V3.59689C22.4019 3.59403 22.4003 3.59173 22.4002 3.58887ZM17.1665 1.32759L18.3024 2.46351L15.498 7.37091L12.6273 4.81925L17.1665 1.32759ZM6.83393 1.32759L11.3731 4.81925L8.50238 7.37091L5.69807 2.46351L6.83393 1.32759ZM11.6001 23.1999H2.39873V3.87424L5.02085 2.89093L8.05231 8.196C8.08731 8.25722 8.13786 8.30811 8.19885 8.34352C8.25984 8.37893 8.3291 8.3976 8.39962 8.39764C8.49755 8.39759 8.59206 8.36167 8.6653 8.29665L11.6001 5.68793V23.1999ZM8.66267 1.72506C9.70327 2.16655 10.8517 2.38789 12.0002 2.38789C13.1488 2.38789 14.2971 2.16655 15.3378 1.72506L12.0002 4.29229L8.66267 1.72506ZM21.6017 23.1999H12.4003V5.68789L15.3351 8.29661C15.3796 8.33612 15.4324 8.36522 15.4896 8.38178C15.5467 8.39834 15.6069 8.40195 15.6656 8.39234C15.7243 8.38268 15.7802 8.36004 15.829 8.32608C15.8779 8.29213 15.9186 8.2477 15.9481 8.19604L18.9796 2.89093L21.6017 3.87424V23.1999Z" fill="black"/>
<path d="M14.401 11.5981V15.1987C14.401 15.2646 14.4173 15.3294 14.4484 15.3875C14.4794 15.4455 14.5244 15.495 14.5792 15.5316L16.9796 17.1318C17.0453 17.1756 17.1225 17.1989 17.2015 17.1989C17.2804 17.1989 17.3576 17.1756 17.4234 17.1318L19.8237 15.5316C19.8785 15.495 19.9235 15.4455 19.9546 15.3875C19.9856 15.3294 20.0019 15.2646 20.0019 15.1987V11.5981C20.0019 11.5456 19.9916 11.4936 19.9715 11.445C19.9514 11.3965 19.9219 11.3524 19.8848 11.3152C19.8476 11.2781 19.8035 11.2486 19.7549 11.2285C19.7064 11.2084 19.6544 11.1981 19.6018 11.1981H14.8011C14.7485 11.1981 14.6965 11.2084 14.648 11.2285C14.5994 11.2486 14.5553 11.2781 14.5182 11.3152C14.481 11.3524 14.4516 11.3965 14.4315 11.445C14.4114 11.4936 14.401 11.5456 14.401 11.5981ZM15.2011 11.9982H19.2017V14.9846L17.2014 16.3182L15.2011 14.9846V11.9982H15.2011ZM9.60029 10.798C9.70423 10.798 9.80812 10.7539 9.8843 10.682C9.95617 10.606 10.0003 10.5019 10.0003 10.398C10.0003 10.29 9.95617 10.1899 9.8843 10.114C9.73625 9.96592 9.46433 9.96592 9.31623 10.114C9.24394 10.19 9.2002 10.29 9.2002 10.398C9.2002 10.5019 9.24394 10.606 9.31623 10.682C9.39204 10.7579 9.49635 10.798 9.60029 10.798ZM9.60029 13.9985C9.70812 13.9985 9.80812 13.9543 9.8843 13.8825C9.95617 13.8065 10.0003 13.7023 10.0003 13.5985C10.0003 13.4904 9.95617 13.3904 9.8843 13.3144C9.73625 13.1664 9.46433 13.1664 9.31623 13.3144C9.24394 13.3904 9.2002 13.4904 9.2002 13.5985C9.2002 13.7024 9.24394 13.8065 9.31623 13.8825C9.39204 13.9544 9.49635 13.9985 9.60029 13.9985ZM9.60029 17.199C9.70812 17.199 9.80812 17.1549 9.8843 17.083C9.95617 17.007 10.0003 16.9029 10.0003 16.799C10.0003 16.691 9.95617 16.5909 9.8843 16.515C9.73625 16.3669 9.46433 16.3669 9.31623 16.515C9.24394 16.591 9.2002 16.691 9.2002 16.799C9.2002 16.9029 9.24394 17.007 9.31623 17.083C9.39204 17.1549 9.49635 17.199 9.60029 17.199ZM9.60029 20.3995C9.70812 20.3995 9.80812 20.3554 9.8843 20.2835C9.95617 20.2075 10.0003 20.1034 10.0003 19.9995C10.0003 19.8954 9.95617 19.7914 9.8843 19.7155C9.73625 19.5674 9.46822 19.5674 9.31623 19.7155C9.24394 19.7915 9.2002 19.8954 9.2002 19.9995C9.2002 20.1034 9.24394 20.2075 9.31623 20.2835C9.39204 20.3554 9.49635 20.3995 9.60029 20.3995Z" fill="black"/>
</g>
<defs>
<clipPath id="clip0_120_2130">
<rect width="24" height="24" fill="white"/>
</clipPath>
</defs>
</svg>
