<svg width="24" height="24" viewBox="0 0 24 24" fill="none" xmlns="http://www.w3.org/2000/svg">
<g clip-path="url(#clip0_120_2144)">
<path d="M22.578 5.73034C22.4575 5.58586 22.2929 5.48487 22.1095 5.44283C21.926 5.40078 21.7339 5.42 21.5624 5.49754C21.3075 4.51588 20.8194 3.61024 20.1396 2.85754C19.184 1.78981 18.0748 0.87027 16.8484 0.129137C16.7346 0.0586512 16.6059 0.0155678 16.4726 0.00328167C16.3392 -0.00900445 16.2049 0.00984237 16.08 0.0583371C15.9568 0.105387 15.8462 0.180482 15.757 0.27768C15.6677 0.374877 15.6024 0.491507 15.566 0.618337C15.1911 1.8103 14.4734 2.86541 13.5024 3.65194C11.846 5.05834 9.82804 5.03554 8.77124 4.89714C8.23855 4.82359 7.6978 4.95503 7.2583 5.26489C6.81881 5.57474 6.51334 6.0399 6.40364 6.56634L5.49564 10.9147C5.45919 11.091 5.47806 11.2741 5.54965 11.4392C5.62125 11.6043 5.74208 11.7433 5.89564 11.8371L5.93564 11.8603L5.58044 12.9491C5.06547 14.5346 4.12003 15.9458 2.84964 17.0251L0.969644 18.6215C0.485602 19.0335 0.159028 19.6003 0.045359 20.2256C-0.0683102 20.851 0.0379294 21.4964 0.346044 22.0523L0.349244 22.0579C0.316647 22.1133 0.290478 22.1722 0.271244 22.2335C0.229059 22.3731 0.222591 22.521 0.252433 22.6637C0.282275 22.8064 0.347472 22.9394 0.442044 23.0503L0.988044 23.6923C1.06894 23.7888 1.17 23.8663 1.2841 23.9194C1.3982 23.9726 1.52257 24.0001 1.64844 23.9999C1.72209 23.9999 1.79545 23.9908 1.86684 23.9727C5.42507 22.9591 8.71637 21.1741 11.5068 18.7447C12.5446 17.8469 13.4824 16.8398 14.304 15.7407C15.0158 14.7922 15.8151 13.9127 16.6916 13.1139L16.7316 13.1635C16.8062 13.2511 16.8973 13.323 16.9999 13.375C17.1024 13.427 17.2142 13.4582 17.3288 13.4667C17.3512 13.4667 17.3736 13.4691 17.3956 13.4691C17.6023 13.4694 17.8021 13.3951 17.9584 13.2599L23.6944 8.38834C23.8685 8.23751 23.9763 8.02422 23.9944 7.79458C24.0125 7.56494 23.9395 7.3374 23.7912 7.16114L22.578 5.73034ZM7.18524 6.73034C7.25315 6.40114 7.44408 6.11024 7.7191 5.91698C7.99412 5.72372 8.33251 5.64266 8.66524 5.69034C9.85404 5.84674 12.1272 5.86874 14.0188 4.26114C15.1094 3.37255 15.9144 2.18275 16.3336 0.839937C16.3358 0.83151 16.3401 0.823761 16.346 0.817402C16.3519 0.811042 16.3594 0.806275 16.3676 0.803537C16.3776 0.799569 16.3883 0.798007 16.3989 0.798981C16.4096 0.799954 16.4198 0.803435 16.4288 0.809137C17.5837 1.50616 18.6286 2.37094 19.5292 3.37514C20.6264 4.66714 20.8132 5.68834 20.844 6.05514L15.408 10.6759C12.7444 10.0359 9.79804 11.5319 8.63364 12.2227C8.54912 12.2736 8.45231 12.3005 8.35364 12.3005C8.25498 12.3005 8.15817 12.2736 8.07364 12.2227L6.31044 11.1535C6.29862 11.1457 6.28941 11.1345 6.28399 11.1214C6.27858 11.1083 6.2772 11.0938 6.28004 11.0799L6.44524 10.2883L7.14364 10.4883C7.17982 10.4986 7.21724 10.5038 7.25484 10.5039C7.35127 10.504 7.44446 10.4692 7.51727 10.406C7.59008 10.3428 7.63761 10.2554 7.65109 10.1599C7.66458 10.0644 7.64312 9.96727 7.59067 9.88636C7.53822 9.80545 7.45831 9.74621 7.36564 9.71954L6.60884 9.50074L6.92564 7.98074L7.66444 8.19314C7.70045 8.20355 7.73776 8.2088 7.77524 8.20874C7.87163 8.20869 7.96476 8.17383 8.0375 8.11058C8.11024 8.04733 8.15769 7.95994 8.17112 7.86449C8.18456 7.76904 8.16307 7.67195 8.11062 7.59108C8.05817 7.51021 7.97828 7.451 7.88564 7.42434L7.08924 7.19554L7.18524 6.73034ZM1.48884 19.2307L3.36884 17.6347C4.75235 16.4588 5.78197 14.9217 6.34284 13.1947L6.63964 12.2843L7.66124 12.9043C7.86958 13.0302 8.10822 13.0971 8.35163 13.0979C8.59505 13.0987 8.83411 13.0333 9.04324 12.9087C10.036 12.3199 12.4208 11.0959 14.648 11.3487C13.8545 12.1092 13.1225 12.9314 12.4588 13.8075C11.6704 14.8661 10.7691 15.8357 9.77084 16.6991C7.21349 18.9065 4.23684 20.5749 1.01924 21.6043C0.818536 21.2137 0.755707 20.7667 0.840948 20.3358C0.926189 19.905 1.1545 19.5155 1.48884 19.2307ZM13.6752 15.2447C12.8867 16.3031 11.9854 17.2725 10.9872 18.1359C8.29108 20.4874 5.10974 22.2156 1.66964 23.1975C1.65711 23.2007 1.64393 23.2003 1.63162 23.1964C1.61931 23.1924 1.60837 23.185 1.60004 23.1751L1.05204 22.5323C1.04382 22.5234 1.03813 22.5124 1.03553 22.5005C1.03293 22.4887 1.03352 22.4763 1.03724 22.4647C1.04006 22.4539 1.04581 22.4441 1.05386 22.4363C1.0619 22.4286 1.07193 22.4232 1.08284 22.4207C4.46945 21.3678 7.60274 19.6283 10.2872 17.3107C11.325 16.413 12.2628 15.4058 13.0844 14.3067C13.7957 13.3582 14.5947 12.4787 15.4708 11.6799L16.172 12.5043C15.2559 13.3377 14.4199 14.2552 13.6752 15.2447ZM23.176 7.77994L17.44 12.6527C17.426 12.6637 17.4087 12.6696 17.3908 12.6695C17.3718 12.6681 17.3541 12.6592 17.3416 12.6447L17.0372 12.2871L16.0772 11.1591L21.8692 6.23914C21.8757 6.23285 21.8836 6.22819 21.8922 6.22554C21.9008 6.2229 21.91 6.22235 21.9188 6.22394C21.9284 6.22465 21.9377 6.22733 21.9462 6.23181C21.9546 6.23628 21.9621 6.24245 21.968 6.24994L23.1828 7.68034C23.1945 7.69472 23.2003 7.71299 23.1991 7.73148C23.1978 7.74996 23.1896 7.76728 23.176 7.77994Z" fill="black"/>
</g>
<defs>
<clipPath id="clip0_120_2144">
<rect width="24" height="24" fill="white"/>
</clipPath>
</defs>
</svg>
