<svg width="14" height="14" viewBox="0 0 14 14" fill="none" xmlns="http://www.w3.org/2000/svg">
<g clip-path="url(#clip0_464_5368)">
<path d="M5.78893 9.02978C5.73692 8.82817 5.63183 8.64418 5.48461 8.49696C5.33738 8.34973 5.15339 8.24465 4.95178 8.19264L1.37776 7.27102C1.31679 7.25371 1.26312 7.21699 1.22491 7.16642C1.18669 7.11585 1.16602 7.05419 1.16602 6.99081C1.16602 6.92742 1.18669 6.86577 1.22491 6.8152C1.26312 6.76463 1.31679 6.7279 1.37776 6.7106L4.95178 5.7884C5.15332 5.73644 5.33726 5.63144 5.48448 5.48433C5.6317 5.33721 5.73682 5.15334 5.78893 4.95184L6.71054 1.37782C6.72767 1.3166 6.76436 1.26267 6.81501 1.22425C6.86565 1.18583 6.92747 1.16504 6.99104 1.16504C7.05461 1.16504 7.11644 1.18583 7.16708 1.22425C7.21773 1.26267 7.25442 1.3166 7.27155 1.37782L8.19258 4.95184C8.24459 5.15345 8.34967 5.33744 8.4969 5.48466C8.64413 5.63189 8.82811 5.73697 9.02972 5.78898L12.6037 6.71001C12.6652 6.72697 12.7194 6.76362 12.758 6.81434C12.7967 6.86506 12.8176 6.92705 12.8176 6.99081C12.8176 7.05456 12.7967 7.11656 12.758 7.16728C12.7194 7.218 12.6652 7.25465 12.6037 7.2716L9.02972 8.19264C8.82811 8.24465 8.64413 8.34973 8.4969 8.49696C8.34967 8.64418 8.24459 8.82817 8.19258 9.02978L7.27096 12.6038C7.25383 12.665 7.21715 12.7189 7.1665 12.7574C7.11585 12.7958 7.05403 12.8166 6.99046 12.8166C6.92689 12.8166 6.86507 12.7958 6.81442 12.7574C6.76378 12.7189 6.72709 12.665 6.70996 12.6038L5.78893 9.02978Z" stroke="#C9A961" stroke-width="1.16513" stroke-linecap="round" stroke-linejoin="round"/>
<path d="M11.6514 1.7478V4.07805" stroke="#C9A961" stroke-width="1.16513" stroke-linecap="round" stroke-linejoin="round"/>
<path d="M12.8166 2.91284H10.4863" stroke="#C9A961" stroke-width="1.16513" stroke-linecap="round" stroke-linejoin="round"/>
<path d="M2.33008 9.90356V11.0687" stroke="#C9A961" stroke-width="1.16513" stroke-linecap="round" stroke-linejoin="round"/>
<path d="M2.91317 10.4861H1.74805" stroke="#C9A961" stroke-width="1.16513" stroke-linecap="round" stroke-linejoin="round"/>
</g>
<defs>
<clipPath id="clip0_464_5368">
<rect width="13.9815" height="13.9815" fill="white"/>
</clipPath>
</defs>
</svg>
