<svg width="16" height="16" viewBox="0 0 16 16" fill="none" xmlns="http://www.w3.org/2000/svg">
<g clip-path="url(#clip0_464_5070)">
<path d="M6.62202 10.3288C6.56253 10.0982 6.44232 9.88773 6.27391 9.71932C6.10551 9.55091 5.89505 9.43071 5.66443 9.37122L1.5762 8.31701C1.50645 8.29721 1.44506 8.2552 1.40135 8.19735C1.35763 8.13951 1.33398 8.06898 1.33398 7.99648C1.33398 7.92397 1.35763 7.85345 1.40135 7.7956C1.44506 7.73775 1.50645 7.69575 1.5762 7.67595L5.66443 6.62107C5.89497 6.56163 6.10537 6.44153 6.27377 6.27325C6.44217 6.10496 6.56242 5.89464 6.62202 5.66415L7.67623 1.57591C7.69583 1.50589 7.73779 1.4442 7.79573 1.40025C7.85366 1.35631 7.92438 1.33252 7.99709 1.33252C8.06981 1.33252 8.14053 1.35631 8.19846 1.40025C8.25639 1.4442 8.29836 1.50589 8.31795 1.57591L9.3715 5.66415C9.43099 5.89476 9.5512 6.10522 9.7196 6.27363C9.88801 6.44204 10.0985 6.56224 10.3291 6.62174L14.4173 7.67528C14.4876 7.69467 14.5496 7.7366 14.5938 7.79462C14.638 7.85264 14.6619 7.92355 14.6619 7.99648C14.6619 8.0694 14.638 8.14032 14.5938 8.19834C14.5496 8.25636 14.4876 8.29828 14.4173 8.31767L10.3291 9.37122C10.0985 9.43071 9.88801 9.55091 9.7196 9.71932C9.5512 9.88773 9.43099 10.0982 9.3715 10.3288L8.31729 14.417C8.29769 14.4871 8.25573 14.5488 8.19779 14.5927C8.13986 14.6366 8.06914 14.6604 7.99643 14.6604C7.92371 14.6604 7.85299 14.6366 7.79506 14.5927C7.73713 14.5488 7.69516 14.4871 7.67556 14.417L6.62202 10.3288Z" stroke="#C9A961" stroke-width="1.33276" stroke-linecap="round" stroke-linejoin="round"/>
<path d="M13.3271 1.99902V4.66454" stroke="#C9A961" stroke-width="1.33276" stroke-linecap="round" stroke-linejoin="round"/>
<path d="M14.6606 3.33179H11.9951" stroke="#C9A961" stroke-width="1.33276" stroke-linecap="round" stroke-linejoin="round"/>
<path d="M2.66504 11.3284V12.6611" stroke="#C9A961" stroke-width="1.33276" stroke-linecap="round" stroke-linejoin="round"/>
<path d="M3.33178 11.9949H1.99902" stroke="#C9A961" stroke-width="1.33276" stroke-linecap="round" stroke-linejoin="round"/>
</g>
<defs>
<clipPath id="clip0_464_5070">
<rect width="15.9931" height="15.9931" fill="white"/>
</clipPath>
</defs>
</svg>
