<svg width="14" height="14" viewBox="0 0 14 14" fill="none" xmlns="http://www.w3.org/2000/svg">
<path d="M6.99969 8.16663H7.58303C8.22469 8.16663 8.74969 7.64163 8.74969 6.99996V1.16663H3.49969C2.62469 1.16663 1.86053 1.65079 1.46387 2.36245" stroke="#1E3A8A" stroke-linecap="round" stroke-linejoin="round"/>
<path d="M1.16699 9.91663C1.16699 10.885 1.94866 11.6666 2.91699 11.6666H3.50033C3.50033 11.025 4.02533 10.5 4.66699 10.5C5.30866 10.5 5.83366 11.025 5.83366 11.6666H8.16699C8.16699 11.025 8.69199 10.5 9.33366 10.5C9.97533 10.5 10.5003 11.025 10.5003 11.6666H11.0837C12.052 11.6666 12.8337 10.885 12.8337 9.91663V8.16663H11.0837C10.7628 8.16663 10.5003 7.90413 10.5003 7.58329V5.83329C10.5003 5.51246 10.7628 5.24996 11.0837 5.24996H11.8361L10.8387 3.5058C10.6287 3.14413 10.2437 2.91663 9.82368 2.91663H8.75033V6.99996C8.75033 7.64163 8.22533 8.16663 7.58366 8.16663H7.00033" stroke="#1E3A8A" stroke-linecap="round" stroke-linejoin="round"/>
<path d="M4.66667 12.8333C5.311 12.8333 5.83333 12.311 5.83333 11.6667C5.83333 11.0223 5.311 10.5 4.66667 10.5C4.02233 10.5 3.5 11.0223 3.5 11.6667C3.5 12.311 4.02233 12.8333 4.66667 12.8333Z" stroke="#1E3A8A" stroke-linecap="round" stroke-linejoin="round"/>
<path d="M9.33366 12.8333C9.97799 12.8333 10.5003 12.311 10.5003 11.6667C10.5003 11.0223 9.97799 10.5 9.33366 10.5C8.68933 10.5 8.16699 11.0223 8.16699 11.6667C8.16699 12.311 8.68933 12.8333 9.33366 12.8333Z" stroke="#1E3A8A" stroke-linecap="round" stroke-linejoin="round"/>
<path d="M12.8333 7V8.16667H11.0833C10.7625 8.16667 10.5 7.90417 10.5 7.58333V5.83333C10.5 5.5125 10.7625 5.25 11.0833 5.25H11.8358L12.8333 7Z" stroke="#1E3A8A" stroke-linecap="round" stroke-linejoin="round"/>
<path d="M1.16699 4.66663H4.66699" stroke="#1E3A8A" stroke-linecap="round" stroke-linejoin="round"/>
<path d="M1.16699 6.41663H3.50033" stroke="#1E3A8A" stroke-linecap="round" stroke-linejoin="round"/>
<path d="M1.16699 8.16663H2.33366" stroke="#1E3A8A" stroke-linecap="round" stroke-linejoin="round"/>
</svg>
