<svg width="32" height="32" viewBox="0 0 32 32" fill="none" xmlns="http://www.w3.org/2000/svg">
<path d="M31.3832 14.6617L29.3432 12.7493C29.152 12.57 28.8548 12.5688 28.6621 12.7467L20.3421 20.4267C20.1532 20.601 19.8629 20.6037 19.6708 20.433L18.8981 19.7461C18.6657 19.5396 18.3031 19.593 18.1401 19.8578L17.1539 21.4603C17.0986 21.5503 17.0731 21.6554 17.0812 21.7607L17.2253 23.6332C17.2358 23.7699 17.302 23.8964 17.4085 23.9829L19.6699 25.8202C19.8642 25.9781 20.1455 25.9679 20.3278 25.7963L31.3839 15.3906C31.5939 15.1929 31.5936 14.859 31.3832 14.6617Z" fill="black"/>
<path d="M14.2033 21.2789L13.2199 19.8039C13.0573 19.5599 12.7206 19.5076 12.4916 19.6908L11.5231 20.4656C11.3302 20.6199 11.0535 20.6102 10.8719 20.4428L2.70708 12.9184C2.51474 12.7411 2.21829 12.7421 2.02708 12.9205L0.158606 14.6644C-0.0515075 14.8606 -0.0534316 15.193 0.154399 15.3915L11.0073 25.7585C11.2038 25.9461 11.5141 25.9426 11.7062 25.7505L14.0002 23.4565C14.0829 23.3738 14.134 23.2647 14.1446 23.1482L14.2852 21.6015C14.2956 21.4878 14.2667 21.3739 14.2033 21.2789Z" fill="black"/>
<path d="M13.8945 15.7306L11.7087 17.6593C11.5124 17.8324 11.2159 17.8249 11.0286 17.6421L4.46687 11.2366C4.26416 11.0388 4.26618 10.7122 4.47131 10.5168L11.0179 4.28196C11.2102 4.09884 11.512 4.09795 11.7054 4.27993L19.8493 11.9447C20.0378 12.1222 20.3306 12.1264 20.5241 11.9543L21.3427 11.2267C21.5577 11.0356 21.5675 10.7029 21.3641 10.4994L17.6197 6.75502C17.4151 6.5505 17.4263 6.21564 17.644 6.02518L19.6698 4.25255C19.8627 4.08378 20.152 4.08818 20.3396 4.26275L27.0584 10.5128C27.2693 10.7089 27.2713 11.0421 27.0629 11.2408L20.3592 17.6327C20.1641 17.8187 19.8566 17.8166 19.6641 17.6279L11.5412 9.66424C11.3454 9.47227 11.0315 9.47383 10.8376 9.66772L9.99123 10.5141C9.79336 10.712 9.79639 11.0337 9.99796 11.2278L13.9105 14.9955C14.121 15.1981 14.1136 15.5373 13.8945 15.7306Z" fill="black"/>
<path d="M16.0273 0.146471L18.0874 2.20656C18.2872 2.40629 18.2819 2.7317 18.0758 2.92489L16.0382 4.83518C15.8413 5.01976 15.5335 5.01479 15.3427 4.82397L13.2826 2.76388C13.0828 2.56415 13.0881 2.23874 13.2942 2.04555L15.3318 0.135255C15.5287 -0.0493176 15.8365 -0.0443539 16.0273 0.146471Z" fill="black"/>
<path d="M16.3779 20.7919L15.8588 20.6188C15.7466 20.5814 15.6247 20.585 15.5149 20.6289L15.1546 20.773C14.9788 20.8434 14.9071 21.0539 15.0035 21.217C15.0175 21.2407 15.0284 21.2663 15.0356 21.2929L15.1332 21.6512C15.1548 21.7303 15.1566 21.8135 15.1384 21.8935L13.4949 29.125C13.4583 29.2861 13.5036 29.4549 13.616 29.576L15.3319 31.4239C15.5248 31.6316 15.8515 31.6376 16.0519 31.4372L17.9115 29.5776C18.033 29.4562 18.0836 29.2809 18.0456 29.1134L16.4103 21.9066C16.3903 21.8183 16.3946 21.7263 16.4228 21.6402L16.5426 21.2748C16.5474 21.2602 16.5533 21.2459 16.5602 21.232C16.6461 21.0604 16.56 20.8525 16.3779 20.7919Z" fill="black"/>
<path d="M17.7768 18.6978L16.0098 17.0571C15.8244 16.885 15.5397 16.8784 15.3466 17.0418L13.7251 18.4139C13.5543 18.5584 13.5003 18.7988 13.5928 19.0025L14.0354 19.976C14.1702 20.2727 14.5484 20.3632 14.8029 20.1596L14.8321 20.1362C15.0244 19.9824 15.0761 19.7115 14.9539 19.4977L14.6792 19.017C14.5602 18.8087 14.6058 18.5454 14.7879 18.3893L15.3335 17.9217C15.5318 17.7516 15.8277 17.763 16.0124 17.9478L16.5729 18.5083C16.7558 18.6912 16.769 18.9833 16.6035 19.1819L16.4351 19.384C16.2287 19.6317 16.3072 20.0071 16.5956 20.1513L16.6955 20.2013C16.9117 20.3094 17.1742 20.2474 17.3192 20.0541L17.8365 19.3642C17.9901 19.1595 17.9643 18.872 17.7768 18.6978Z" fill="black"/>
</svg>
